<?xml version="1.0" encoding="UTF-8"?>
<svg width="138px" height="139px" viewBox="0 0 138 139" xmlns="http://www.w3.org/2000/svg" xmlns:xlink="http://www.w3.org/1999/xlink" version="1.1">
 <g id="g989">
  <path id="path981" d="M-5.302 54.95 L-3.308 52.985 -8.363 47.857 -10.357 49.823 C-12.473 51.905 -14.158 54.383 -15.315 57.117 -16.472 59.851 -17.078 62.786 -17.1 65.755 -17.121 68.724 -16.557 71.667 -15.439 74.417 -14.322 77.168 -12.673 79.671 -10.587 81.783 L0.926 93.463 C3.368 95.932 4.773 99.241 4.853 102.713 4.933 106.184 3.682 109.555 1.357 112.134 L4.026 114.557 6.411 117.262 C9.023 114.974 12.412 113.772 15.882 113.902 19.352 114.032 22.641 115.485 25.074 117.962 L38.342 131.422 C42.737 135.896 48.729 138.442 55 138.501 61.271 138.559 67.309 136.125 71.787 131.734 L66.732 126.606 C63.633 129.657 59.45 131.353 55.102 131.322 50.753 131.291 46.594 129.534 43.54 126.439 L30.202 112.907 C27.823 110.49 24.888 108.691 21.653 107.669 18.419 106.648 14.983 106.434 11.647 107.046 12.296 103.719 12.126 100.284 11.151 97.037 10.177 93.79 8.427 90.828 6.053 88.408 L-5.459 76.729 C-8.31 73.811 -9.892 69.886 -9.863 65.807 -9.833 61.729 -8.194 57.827 -5.302 54.95 Z" fill="#ffffff" fill-opacity="0.6" stroke="none"/>
  <path id="path983" d="M53.951 -3.456 L51.957 -1.49 46.903 -6.618 48.897 -8.583 C53.167 -12.77 58.924 -15.09 64.904 -15.034 70.883 -14.977 76.596 -12.549 80.786 -8.283 L92.299 3.397 C94.732 5.874 98.021 7.327 101.491 7.457 104.961 7.587 108.349 6.385 110.962 4.097 L113.346 6.801 116.016 9.225 C113.69 11.804 112.44 15.175 112.52 18.646 112.6 22.118 114.005 25.427 116.447 27.896 L129.715 41.356 C134.125 45.815 136.585 51.843 136.553 58.114 136.521 64.386 134 70.388 129.545 74.802 L124.49 69.674 C127.585 66.619 129.342 62.461 129.374 58.113 129.405 53.764 127.708 49.581 124.657 46.482 L111.32 32.95 C108.936 30.537 107.18 27.576 106.205 24.327 105.23 21.078 105.066 17.64 105.726 14.313 102.39 14.914 98.957 14.695 95.725 13.673 92.492 12.652 89.556 10.86 87.171 8.451 L75.658 -3.229 C74.25 -4.673 72.571 -5.824 70.716 -6.617 68.862 -7.41 66.869 -7.829 64.852 -7.85 62.835 -7.872 60.834 -7.494 58.963 -6.74 57.092 -5.985 55.389 -4.87 53.951 -3.456 Z" fill="#ffffff" fill-opacity="0.6" stroke="none"/>
  <path id="path985" d="M58.287 22.881 L65.907 15.369 64.697 45.908 C64.389 51.295 62.091 56.376 58.248 60.164 54.405 63.951 49.292 66.176 43.902 66.407 L13.348 67.176 20.969 59.665 44.096 59.054 C47.519 58.932 50.772 57.53 53.212 55.125 55.651 52.721 57.1 49.488 57.271 46.067 Z" fill="#ffffff" fill-opacity="0.6" stroke="none"/>
  <path id="path987" d="M61.613 101.042 L53.993 108.553 55.204 77.873 C55.465 72.47 57.748 67.362 61.601 63.565 65.453 59.767 70.593 57.558 75.999 57.375 L106.694 56.606 99.074 64.117 75.735 64.656 C72.312 64.778 69.059 66.18 66.619 68.585 64.179 70.989 62.731 74.222 62.559 77.643 Z" fill="#ffffff" fill-opacity="0.6" stroke="none"/>
 </g>
</svg>
